<?xml version="1.0" encoding="utf-8"?>
<!-- Generator: Adobe Illustrator 26.0.3, SVG Export Plug-In . SVG Version: 6.00 Build 0)  -->
<svg version="1.1" id="Layer_1" xmlns="http://www.w3.org/2000/svg" xmlns:xlink="http://www.w3.org/1999/xlink" x="0px" y="0px"
	 viewBox="0 0 138 136" style="enable-background:new 0 0 138 136;" xml:space="preserve">
<style type="text/css">
	.st0{fill:#FCEC00;}
	.st1{fill:#231F20;}
	.st2{clip-path:url(#SVGID_00000133491988604778766280000002113024610378223499_);}
	.st3{clip-path:url(#SVGID_00000075868867623747368290000013340685932463895467_);fill:#231F20;}
</style>
<g>
	<rect x="2.48" y="40.64" class="st0" width="132.9" height="54.71"/>
	<g>
		<g>
			<g>
				<path class="st1" d="M8.71,83.95V73.77h1.73v10.17H8.71z"/>
				<path class="st1" d="M12.39,83.95V73.77H14l2.11,5.82h0.03v-5.82h1.56v10.17h-1.51l-2.2-6.35h-0.03v6.35H12.39z"/>
				<path class="st1" d="M20.41,75.3h-1.67v-1.52h5.08v1.52h-1.67v8.65h-1.73V75.3z"/>
				<path class="st1" d="M24.87,83.95V73.77h4.63v1.52h-2.9v2.62h2.23v1.52H26.6v2.99h3.1v1.52H24.87z"/>
				<path class="st1" d="M32.83,83.95H31.1V73.77h2.43c0.99,0,1.73,0.24,2.21,0.7c0.48,0.47,0.72,1.24,0.72,2.3
					c0,0.74-0.11,1.32-0.34,1.72c-0.23,0.4-0.52,0.69-0.87,0.85l1.46,4.61h-1.76l-1.23-4.21c-0.1,0.01-0.24,0.02-0.41,0.03
					c-0.17,0.01-0.33,0.01-0.48,0.01V83.95z M32.83,78.34h0.61c0.47,0,0.81-0.11,1-0.34c0.19-0.23,0.29-0.63,0.29-1.23
					c0-0.6-0.1-1.01-0.29-1.23c-0.19-0.22-0.52-0.33-1-0.33h-0.61V78.34z"/>
				<path class="st1" d="M38.12,83.95V73.77h1.6l2.11,5.82h0.03v-5.82h1.56v10.17h-1.51l-2.2-6.35h-0.03v6.35H38.12z"/>
				<path class="st1" d="M46.13,83.95h-1.67l1.85-10.17h2.15l1.85,10.17h-1.67l-0.31-2.25h-1.9L46.13,83.95z M46.69,80.17h1.39
					L47.4,75.8h-0.03L46.69,80.17z"/>
				<path class="st1" d="M51.85,75.3h-1.67v-1.52h5.08v1.52h-1.67v8.65h-1.73V75.3z"/>
				<path class="st1" d="M56.55,83.95V73.77h1.73v10.17H56.55z"/>
				<path class="st1" d="M60.23,76.24c0-0.76,0.23-1.39,0.68-1.87c0.45-0.49,1.11-0.73,1.97-0.73c0.86,0,1.52,0.24,1.97,0.73
					c0.45,0.49,0.68,1.11,0.68,1.87v5.24c0,0.76-0.22,1.39-0.68,1.87c-0.45,0.49-1.11,0.73-1.97,0.73c-0.86,0-1.52-0.24-1.97-0.73
					c-0.45-0.49-0.68-1.11-0.68-1.87V76.24z M61.96,81.44c0,0.39,0.07,0.68,0.21,0.86c0.14,0.18,0.38,0.27,0.71,0.27
					c0.34,0,0.58-0.09,0.72-0.27c0.13-0.18,0.2-0.46,0.2-0.86v-5.16c0-0.39-0.07-0.68-0.2-0.86c-0.13-0.18-0.37-0.27-0.72-0.27
					c-0.33,0-0.57,0.09-0.71,0.27c-0.14,0.18-0.21,0.46-0.21,0.86V81.44z"/>
				<path class="st1" d="M67.24,83.95V73.77h1.6l2.11,5.82h0.03v-5.82h1.56v10.17h-1.51l-2.2-6.35H68.8v6.35H67.24z"/>
				<path class="st1" d="M75.26,83.95h-1.67l1.86-10.17h2.15l1.85,10.17h-1.67l-0.31-2.25h-1.9L75.26,83.95z M75.82,80.17h1.39
					l-0.68-4.37H76.5L75.82,80.17z"/>
				<path class="st1" d="M80.4,83.95V73.77h1.73v8.65h2.72v1.52H80.4z"/>
			</g>
			<g>
				<path class="st1" d="M11.16,69.29H8.22l3.25-17.17h3.77l3.25,17.17h-2.94l-0.54-3.8h-3.33L11.16,69.29z M12.13,62.92h2.45
					l-1.2-7.37h-0.05L12.13,62.92z"/>
				<path class="st1" d="M32.03,52.12v17.17h-2.64V55.88h-0.05l-2.74,13.41h-1.47l-2.74-13.41h-0.05v13.41h-2.64V52.12h3.99
					l2.15,10.03h0.05l2.15-10.03H32.03z"/>
				<path class="st1" d="M34.43,69.29V52.12h2.81l3.69,9.82h0.05v-9.82h2.74v17.17h-2.64l-3.87-10.72h-0.05v10.72H34.43z"/>
				<path class="st1" d="M46.27,69.29V52.12h8.12v2.57H49.3v4.42h3.91v2.57H49.3v5.04h5.43v2.57H46.27z"/>
				<path class="st1" d="M62.27,56.35c-0.05-0.68-0.23-1.17-0.54-1.46c-0.31-0.29-0.67-0.44-1.08-0.44c-1.01,0-1.52,0.56-1.52,1.69
					c0,0.57,0.21,1.1,0.62,1.58s1.06,1.09,1.92,1.82c0.59,0.48,1.06,0.88,1.43,1.22c0.37,0.34,0.72,0.73,1.06,1.18
					c0.34,0.44,0.62,0.93,0.82,1.46c0.2,0.53,0.31,1.11,0.31,1.72c0,1.38-0.44,2.46-1.31,3.23c-0.87,0.78-2.03,1.17-3.49,1.17
					c-1.35,0-2.43-0.46-3.24-1.37c-0.81-0.91-1.24-2.04-1.31-3.39l2.89-0.4c0.06,0.84,0.26,1.48,0.58,1.93
					c0.32,0.44,0.73,0.67,1.24,0.67c0.54,0,0.97-0.13,1.28-0.4c0.32-0.27,0.48-0.66,0.48-1.17c0-0.7-0.22-1.3-0.65-1.82
					c-0.43-0.51-1.11-1.14-2.02-1.87c-0.57-0.48-1.04-0.88-1.39-1.21c-0.36-0.33-0.7-0.71-1.03-1.13c-0.33-0.42-0.59-0.9-0.78-1.44
					c-0.2-0.54-0.29-1.13-0.29-1.76c0-1.36,0.41-2.42,1.24-3.16c0.82-0.75,1.98-1.12,3.46-1.12c1.21,0,2.18,0.38,2.91,1.14
					c0.73,0.76,1.17,1.77,1.3,3.02L62.27,56.35z"/>
				<path class="st1" d="M68.97,54.69h-2.94v-2.57h8.91v2.57h-2.94v14.6h-3.03V54.69z"/>
				<path class="st1" d="M81.82,69.29h-3.03v-7.13l-3.67-10.03h3.08l2.13,6.54h0.05l2.03-6.54h3.08l-3.67,10.03V69.29z"/>
			</g>
		</g>
		<g>
			<defs>
				<polyline id="SVGID_1_" points="96.22,43.92 129.55,43.92 129.55,90.71 96.22,90.71 				"/>
			</defs>
			<clipPath id="SVGID_00000050661699407013415220000009335336128117452983_">
				<use xlink:href="#SVGID_1_"  style="overflow:visible;"/>
			</clipPath>
			<g style="clip-path:url(#SVGID_00000050661699407013415220000009335336128117452983_);">
				<defs>
					<polyline id="SVGID_00000145042031550997490810000011137752458136118717_" points="99.61,46.4 99.61,87.47 126.57,87.47 
						126.57,46.4 					"/>
				</defs>
				<clipPath id="SVGID_00000147908383196164793330000006641483791679498141_">
					<use xlink:href="#SVGID_00000145042031550997490810000011137752458136118717_"  style="overflow:visible;"/>
				</clipPath>
				<path style="clip-path:url(#SVGID_00000147908383196164793330000006641483791679498141_);fill:#231F20;" d="M107.61,80.36
					c-0.01,0.58-0.46,0.54-0.46,0.54c-0.46,0-0.75-0.9-0.86-0.87c-0.15,0.03,0.03,0.76-0.15,0.87c-0.14,0.14-3.21-1.24-3.44-1.46
					c-0.2-0.2,0.09-0.48,0-0.68c-0.06-0.17-0.52-0.11-0.66-0.19c-0.12-0.11,0.14-0.62-0.03-0.73c-0.15-0.08-0.46,0.51-0.66,0.22
					c-0.09-0.11-0.12-0.31-0.12-0.56c0-1.71,1.88-2.41,3.16-2.84c0.52-0.17,0.34,0.48,0.52,0.51c0.2,0.06,0.23-0.31,0.46-0.31
					c0.17,0,0.84,0.31,0.98,0.19c0.12-0.08-0.35-0.51-0.2-0.67c0.18-0.14,1.46-0.48,1.47-0.11 M118.35,62.09
					c0-0.48-0.35-0.84-0.72-0.84h-3.12c-0.87,0-0.81-0.62-0.81-0.76c0-3.74,5.58-4.35,5.58-9.25c0-2.14-1.39-3.57-3.01-4.84
					c-0.09-0.06,0,0.31,0,0.45c0,2.28-8.7,3.45-8.7,8.71c0,4.58,4.68,4.78,4.68,5.48c0,0.14-0.29,0.2-0.32,0.2h-3.59
					c-0.38,0-0.72,0.36-0.72,0.84v2.81c-0.35,0.11-0.78-0.4-1.01-0.4c-0.12,0-0.06,0.87-0.26,0.99c-0.18,0.09-3.44,1.21-3.73,1.24
					c-0.46,0.08-0.35-0.7-0.61-0.7c-0.23,0-0.23,0.78-0.81,0.78c-0.35,0-0.64-0.31-0.9-0.31c-0.17,0,0.38,0.64,0.38,0.84
					c0,0.54-1.07,0.73-1.07,1.1c0,0.2,1.01-0.09,1.16-0.09c0.52,0,0.46,0.59,0.66,0.59c0.2,0,0.35-0.68,0.52-0.79
					c0.35-0.2,0.75,0.14,0.92,0.14c0.29,0-0.23-0.67,0.03-0.78c0,0,3.52-1.46,3.75-1.35c0.2,0.12,0.18,0.45,0.4,0.56
					c0.23,0.12,0.58-0.79,0.58-0.22v6.89c-0.41,0.25-1.28,0.39-1.74,0.39c-0.23,0-0.11-0.73-0.26-0.73c-0.23,0-0.47,0.62-0.81,0.62
					c-0.32,0-0.78-0.76-1.1-0.76c-0.2,0,0.38,0.95,0.03,1.12c-1.33,0.65-3.44,1.26-3.44,3.32c0,0.42,0.23,0.93,0.14,1.07
					c-0.09,0.19-0.55,0.59-0.52,0.76c0,0.17,0.87,0.11,1.04,0.37c0.08,0.14,0.14,0.76,0.32,0.76c0.14,0,0.52-0.48,0.84-0.31
					c1.01,0.59,2.77,1.24,3.59,1.66c0.2,0.11,0.08,0.73,0.2,0.78c0.23,0.11,0.7-0.59,1.42-0.19c0.15,0.05,0.25,0.19,0.25,0.44v2.3
					c0,0.48,0.24,0.6,0.47,0.66l8.62,1.71c0,0,0.64,0.11,0.9,0.11c0.32,0,0.75-0.13,0.75-0.75l-0.01-5.12c0-0.06,0.04-0.2,0.13-0.2
					c0.46-0.04,0.35,1.4,0.46,1.4c0.23,0,0.38-0.95,0.67-0.95c0.4,0,0.67,0.36,0.84,0.28c0.15-0.08-0.08-0.54-0.08-0.82
					c0-0.25,0.75-0.36,1.68-0.7c0.81-0.28,1.47-0.59,1.74-0.59c0.2,0,0.35,0.53,0.52,0.53c0.14,0,0.17-0.7,0.49-0.7
					c0.26,0,0.84,0.39,0.98,0.28c0.12-0.08-0.29-0.62,0.03-0.85c0.23-0.14,0.78-0.47,0.78-0.62c0-0.08-1.07-0.11-1.13-0.11
					c-0.2-0.06-0.43-0.68-0.58-0.68c-0.17,0-0.17,0.62-0.44,0.82c-0.23,0.17-0.81-0.59-1.07-0.59c-0.15,0,0.17,0.56,0.17,1.01
					c0,0.45-2.8,1.32-3.18,1.32c-0.58,0-0.61-0.7-0.73-0.7c-0.17,0-0.14,0.85-0.87,0.85c-0.32,0-0.41-0.17-0.41-0.34v-6.74
					c0-0.2,0.06-0.51,0.43-0.51c0.52,0,0.52,1.01,0.7,1.01c0.32,0,0.49-1.04,1.1-1.04c0.46,0,0.84,0.62,1.13,0.62
					c0.2,0-0.35-0.65-0.35-0.96c0-0.31,2.87-0.2,3.96-2.08c0.32-0.53,0.32-1.18,0.43-1.43c0.17-0.28,0.81-0.23,0.81-0.42
					c0-0.08-0.46-0.19-0.64-0.31c-0.35-0.2-0.23-1.21-0.4-1.21c-0.26,0-0.52,0.71-0.78,0.4c-0.46-0.56-2.37-1.63-3.24-1.94
					c-0.32-0.11,0.23-1.04,0.09-1.13c-0.15-0.08-0.52,0.57-1.07,0.45c-0.43-0.08-0.23-0.84-0.46-0.84c-0.12,0-0.55,1.07-0.87,0.98
					c-0.35-0.08-0.84-0.17-0.84-0.17V62.09z M118.35,65.77c0,0,0.06,0,0.41,0.09c0.23,0.06,0.46,0.17,0.46,0.48
					c0,0.17-0.06,0.51,0.06,0.56c0.12,0.06,0.2-0.05,0.26-0.08c1.07-0.76,1.33,0.59,1.56,0.59c0.2,0,0.18-0.93,0.46-0.93
					c0.23-0.08,2.46,0.96,2.46,1.63c0,0.14-0.29,0.16-0.32,0.31c-0.03,0.2,0.52,0.28,0.43,0.65c-0.03,0.22-0.55,0.5-0.41,0.64
					c0.15,0.15,0.84-0.14,0.9-0.14c0.14,0,0.17,0.23,0.17,0.31c0,1.24-2.98,2.17-3.65,1.89c-0.2-0.09-0.23-0.7-0.35-0.7
					c-0.18,0-0.26,0.56-0.61,0.64c-0.35,0.06-0.87-0.36-1.01-0.25c-0.14,0.11,0.35,0.9-0.61,0.9c-0.23,0-0.23-0.25-0.23-0.45V65.77z
					 M110.43,56.64c0-3.88,5.9-6.1,6.31-8.07c0.43,0.4,0.49,1.04,0.49,1.6c0,2.36-4.22,6.33-4.22,9.19c0,0.31,0.03,0.39,0.03,0.59
					c0,0.28-0.11,0.34-0.17,0.34C112.16,60.3,110.43,58.97,110.43,56.64z M109.65,63.75c0-0.45,0.35-0.62,0.66-0.62h5.12
					c0.63,0,0.9,0.19,0.9,0.84l0.02,8.6c0,0.28-3.01,0.36-3.12,0.17c-0.18-0.28-0.09-0.76-0.26-0.76c-0.09,0-0.55,0.67-0.81,0.67
					c-0.26,0-0.69-0.48-0.86-0.48c-0.12,0,0.12,0.67-0.12,0.96c-0.14,0.2-1.53,0.34-1.53,0.17V63.75z M116.38,84.86
					c0,0.59-0.2,0.73-0.72,0.62l-5.52-1.07c-0.32-0.05-0.49-0.25-0.49-0.59V74.1c0-0.25,0.9-0.28,1.04-0.17
					c0.26,0.22,0.17,1.04,0.35,1.04c0.23,0,0.84-0.99,1.1-0.99c0.55,0,0.92,0.31,1.04,0.25c0.11-0.05,0.11-0.5,0.26-0.62
					c0.2-0.14,0.81-0.14,1.12-0.17c0.52-0.02,1.48-0.11,1.48-0.11c0.38,0,0.35,0.25,0.35,0.78V84.86z"/>
			</g>
		</g>
	</g>
</g>
</svg>
