<?xml version="1.0" encoding="utf-8"?>
<!-- Generator: Adobe Illustrator 26.0.3, SVG Export Plug-In . SVG Version: 6.00 Build 0)  -->
<svg version="1.1" id="Layer_1" xmlns="http://www.w3.org/2000/svg" xmlns:xlink="http://www.w3.org/1999/xlink" x="0px" y="0px"
	 viewBox="0 0 138 136" style="enable-background:new 0 0 138 136;" xml:space="preserve">
<style type="text/css">
	.st0{fill:#6C5635;}
</style>
<g>
	<g id="LOGO_4_">
		<polygon class="st0" points="1.8,81.65 1.8,80.87 135.14,80.87 132.25,83.23 		"/>
		<polygon class="st0" points="130.92,71.57 62.07,49.35 1.99,71.57 62.23,45.99 108.18,60.54 108.18,55.81 111.25,55.81 
			111.25,61.33 134.95,68.89 		"/>
	</g>
	<g>
		<path class="st0" d="M3.98,77.43c0.14,0.04,0.29,0.08,0.45,0.1c0.13,0.03,0.28,0.06,0.44,0.08c0.16,0.02,0.33,0.03,0.5,0.03
			c0.3,0,0.45-0.11,0.45-0.32c0-0.08-0.05-0.17-0.14-0.25c-0.09-0.09-0.21-0.18-0.34-0.28c-0.14-0.1-0.29-0.22-0.45-0.35
			C4.72,76.31,4.58,76.17,4.44,76c-0.14-0.16-0.25-0.35-0.34-0.55C4,75.24,3.96,75.01,3.96,74.74c0-0.3,0.05-0.56,0.16-0.79
			c0.11-0.23,0.26-0.42,0.46-0.57c0.19-0.15,0.42-0.27,0.68-0.35c0.26-0.08,0.54-0.12,0.84-0.12c0.16,0,0.31,0.01,0.47,0.02
			c0.16,0.02,0.29,0.03,0.42,0.04c0.14,0.02,0.28,0.04,0.42,0.06v1.77c-0.05-0.01-0.11-0.01-0.17-0.02
			c-0.05-0.01-0.11-0.01-0.17-0.02c-0.06-0.01-0.13-0.01-0.2-0.01c-0.04,0-0.09,0-0.15,0s-0.11,0.01-0.16,0.02
			c-0.05,0.01-0.1,0.03-0.14,0.07C6.36,74.9,6.34,74.94,6.34,75c0,0.05,0.04,0.11,0.13,0.19c0.09,0.08,0.19,0.16,0.32,0.27
			c0.13,0.1,0.26,0.22,0.42,0.35c0.15,0.13,0.29,0.28,0.42,0.45c0.13,0.17,0.23,0.36,0.32,0.58c0.09,0.21,0.13,0.45,0.13,0.72
			c0,0.28-0.05,0.54-0.14,0.78c-0.09,0.24-0.23,0.45-0.42,0.63c-0.19,0.18-0.43,0.32-0.73,0.43c-0.3,0.1-0.65,0.16-1.06,0.16
			c-0.25,0-0.47-0.01-0.68-0.03c-0.21-0.02-0.4-0.05-0.56-0.08c-0.19-0.03-0.36-0.07-0.51-0.11V77.43z"/>
		<path class="st0" d="M8.58,73.07h3.81v1.66h-1.74v0.7h1.72V77h-1.72v0.73h1.81v1.66H8.58V73.07z M9.92,72.7l0.8-1.47h1.42
			l-1.16,1.47H9.92z"/>
		<path class="st0" d="M13.1,73.07h1.7l1.78,2.43v-2.43h2.03v6.32H16.9l-1.77-2.42v2.42H13.1V73.07z"/>
		<path class="st0" d="M19.35,73.07h3.81v1.66h-1.74v0.7h1.72V77h-1.72v0.73h1.81v1.66h-3.88V73.07z M20.69,72.7l0.8-1.47h1.42
			l-1.16,1.47H20.69z"/>
		<path class="st0" d="M28,75.22c-0.12-0.1-0.26-0.18-0.44-0.23c-0.17-0.05-0.35-0.08-0.51-0.08c-0.19,0-0.36,0.03-0.51,0.1
			c-0.16,0.07-0.29,0.16-0.4,0.27c-0.11,0.12-0.2,0.26-0.27,0.42c-0.06,0.16-0.1,0.34-0.1,0.53c0,0.19,0.04,0.37,0.11,0.53
			c0.07,0.16,0.17,0.3,0.29,0.42c0.12,0.12,0.27,0.21,0.43,0.27c0.16,0.07,0.34,0.1,0.53,0.1c0.22,0,0.42-0.05,0.6-0.14
			c0.18-0.09,0.34-0.22,0.46-0.37h-0.58v-1.33h2.49v2.1c-0.15,0.26-0.33,0.49-0.53,0.71c-0.21,0.21-0.44,0.39-0.69,0.54
			c-0.26,0.15-0.53,0.27-0.83,0.35c-0.3,0.08-0.6,0.12-0.92,0.12c-0.47,0-0.9-0.09-1.32-0.26c-0.41-0.17-0.77-0.4-1.08-0.7
			c-0.31-0.3-0.55-0.65-0.73-1.05c-0.18-0.4-0.27-0.84-0.27-1.31c0-0.45,0.08-0.88,0.25-1.29c0.17-0.4,0.4-0.76,0.69-1.06
			c0.29-0.3,0.64-0.54,1.05-0.71c0.4-0.17,0.84-0.26,1.3-0.26c0.36,0,0.67,0.03,0.94,0.1c0.26,0.07,0.49,0.15,0.67,0.24
			c0.21,0.1,0.39,0.21,0.53,0.33L28,75.22z"/>
		<path class="st0" d="M32.62,73.07h1.55l2.45,6.32h-2.03l-0.21-0.57h-1.96l-0.21,0.57h-2.03L32.62,73.07z M33.83,77.43l-0.44-1.11
			l-0.44,1.11H33.83z"/>
		<path class="st0" d="M36.84,73.07h2.15v4.66h1.78v1.66h-3.93V73.07z"/>
		<path class="st0" d="M43.09,73.07h1.55l2.45,6.32h-2.03l-0.21-0.57h-1.96l-0.21,0.57h-2.03L43.09,73.07z M44.31,77.43l-0.44-1.11
			l-0.44,1.11H44.31z"/>
		<path class="st0" d="M47.31,73.07h2.19v6.32h-2.19V73.07z"/>
		<path class="st0" d="M50.07,77.43c0.14,0.04,0.29,0.08,0.45,0.1c0.13,0.03,0.28,0.06,0.44,0.08c0.16,0.02,0.33,0.03,0.5,0.03
			c0.3,0,0.45-0.11,0.45-0.32c0-0.08-0.05-0.17-0.14-0.25c-0.09-0.09-0.21-0.18-0.34-0.28c-0.14-0.1-0.29-0.22-0.45-0.35
			c-0.16-0.13-0.31-0.27-0.45-0.44c-0.14-0.16-0.25-0.35-0.34-0.55c-0.09-0.21-0.14-0.44-0.14-0.71c0-0.3,0.05-0.56,0.16-0.79
			c0.11-0.23,0.26-0.42,0.46-0.57c0.19-0.15,0.42-0.27,0.68-0.35c0.26-0.08,0.54-0.12,0.84-0.12c0.16,0,0.31,0.01,0.47,0.02
			c0.16,0.02,0.29,0.03,0.42,0.04c0.14,0.02,0.28,0.04,0.42,0.06v1.77c-0.05-0.01-0.11-0.01-0.17-0.02
			c-0.05-0.01-0.11-0.01-0.17-0.02c-0.06-0.01-0.13-0.01-0.2-0.01c-0.04,0-0.09,0-0.15,0c-0.06,0-0.11,0.01-0.16,0.02
			c-0.05,0.01-0.1,0.03-0.14,0.07c-0.04,0.03-0.06,0.08-0.06,0.13c0,0.05,0.04,0.11,0.13,0.19c0.09,0.08,0.19,0.16,0.32,0.27
			c0.13,0.1,0.26,0.22,0.42,0.35c0.15,0.13,0.29,0.28,0.42,0.45c0.13,0.17,0.23,0.36,0.32,0.58c0.09,0.21,0.13,0.45,0.13,0.72
			c0,0.28-0.05,0.54-0.14,0.78c-0.09,0.24-0.23,0.45-0.42,0.63c-0.19,0.18-0.43,0.32-0.73,0.43c-0.3,0.1-0.65,0.16-1.06,0.16
			c-0.25,0-0.47-0.01-0.68-0.03c-0.21-0.02-0.4-0.05-0.56-0.08c-0.19-0.03-0.36-0.07-0.51-0.11V77.43z"/>
		<path class="st0" d="M54.67,73.07h3.81v1.66h-1.74v0.7h1.72V77h-1.72v0.73h1.81v1.66h-3.88V73.07z"/>
		<path class="st0" d="M61.2,79.39v-6.32H63c0.61,0,1.15,0.07,1.62,0.2c0.47,0.13,0.88,0.33,1.2,0.6s0.58,0.6,0.75,0.99
			c0.17,0.39,0.26,0.85,0.26,1.37c0,0.52-0.09,0.97-0.26,1.37c-0.17,0.39-0.42,0.72-0.75,0.99c-0.33,0.27-0.73,0.47-1.2,0.6
			c-0.47,0.14-1.02,0.2-1.62,0.2H61.2z M63.27,77.59c0.48,0,0.86-0.11,1.12-0.34c0.26-0.22,0.4-0.57,0.4-1.03
			c0-0.46-0.13-0.8-0.4-1.02c-0.26-0.22-0.64-0.33-1.12-0.33V77.59z"/>
		<path class="st0" d="M67.42,73.07h3.81v1.66h-1.74v0.7h1.72V77h-1.72v0.73h1.81v1.66h-3.88V73.07z"/>
		<path class="st0" d="M73.96,73.07h2.15v4.66h1.78v1.66h-3.93V73.07z"/>
		<path class="st0" d="M78.05,73.07h1.59l-0.14,2.75h-1.32L78.05,73.07z"/>
		<path class="st0" d="M80.15,73.07h2.19v6.32h-2.19V73.07z"/>
		<path class="st0" d="M83.08,73.07h1.71l1.69,2.42l1.68-2.42h1.71v6.32h-2.06v-2.27l-1.32,1.89l-1.33-1.89v2.27h-2.06V73.07z"/>
		<path class="st0" d="M90.6,73.07h1.71l1.69,2.42l1.68-2.42h1.71v6.32h-2.06v-2.27l-1.32,1.89l-1.33-1.89v2.27H90.6V73.07z"/>
		<path class="st0" d="M97.98,76.24c0-0.45,0.09-0.88,0.27-1.29c0.18-0.4,0.42-0.76,0.73-1.06c0.31-0.3,0.67-0.54,1.08-0.71
			c0.41-0.17,0.85-0.26,1.32-0.26c0.46,0,0.9,0.09,1.32,0.26c0.41,0.17,0.77,0.41,1.08,0.71c0.31,0.3,0.55,0.65,0.73,1.06
			c0.18,0.4,0.27,0.83,0.27,1.29c0,0.45-0.09,0.88-0.27,1.29c-0.18,0.4-0.42,0.76-0.73,1.06c-0.31,0.3-0.67,0.54-1.08,0.71
			c-0.41,0.17-0.85,0.26-1.32,0.26c-0.47,0-0.9-0.09-1.32-0.26c-0.41-0.17-0.77-0.41-1.08-0.71c-0.31-0.3-0.55-0.65-0.73-1.06
			C98.06,77.12,97.98,76.69,97.98,76.24z M100.01,76.24c0,0.18,0.04,0.36,0.11,0.52c0.07,0.16,0.17,0.3,0.29,0.42
			c0.12,0.12,0.27,0.21,0.43,0.28c0.16,0.07,0.34,0.1,0.53,0.1c0.19,0,0.36-0.03,0.53-0.1c0.16-0.07,0.31-0.16,0.43-0.28
			c0.12-0.12,0.22-0.26,0.29-0.42c0.07-0.16,0.11-0.33,0.11-0.52c0-0.18-0.04-0.36-0.11-0.52c-0.07-0.16-0.17-0.3-0.29-0.42
			c-0.12-0.12-0.27-0.21-0.43-0.28c-0.16-0.07-0.34-0.1-0.53-0.1c-0.19,0-0.36,0.03-0.53,0.1c-0.16,0.07-0.31,0.16-0.43,0.28
			c-0.12,0.12-0.22,0.26-0.29,0.42C100.05,75.88,100.01,76.05,100.01,76.24z"/>
		<path class="st0" d="M105.36,73.07h2.53c0.32,0,0.62,0.04,0.89,0.11c0.27,0.07,0.5,0.18,0.69,0.32c0.19,0.14,0.34,0.32,0.45,0.53
			c0.11,0.21,0.16,0.46,0.16,0.74c0,0.2-0.03,0.37-0.08,0.52c-0.05,0.14-0.11,0.26-0.16,0.36c-0.07,0.11-0.15,0.21-0.24,0.28
			c0.14,0.09,0.27,0.2,0.39,0.34c0.1,0.12,0.19,0.27,0.27,0.45c0.08,0.18,0.12,0.41,0.12,0.67c0,0.3-0.06,0.58-0.16,0.82
			c-0.11,0.25-0.27,0.46-0.47,0.63c-0.2,0.17-0.45,0.31-0.75,0.4c-0.29,0.09-0.62,0.14-0.98,0.14h-2.64V73.07z M108.07,75
			c0-0.29-0.16-0.44-0.48-0.44h-0.23v0.87h0.23C107.91,75.43,108.07,75.29,108.07,75z M107.59,77.9c0.49,0,0.74-0.18,0.74-0.55
			c0-0.37-0.25-0.55-0.74-0.55h-0.23v1.1H107.59z"/>
		<path class="st0" d="M110.86,73.07h2.19v6.32h-2.19V73.07z"/>
		<path class="st0" d="M113.8,73.07h2.15v4.66h1.78v1.66h-3.93V73.07z"/>
		<path class="st0" d="M118.14,73.07h2.19v6.32h-2.19V73.07z"/>
		<path class="st0" d="M121.08,73.07h3.81v1.66h-1.74v0.7h1.72V77h-1.72v0.73h1.81v1.66h-3.88V73.07z"/>
		<path class="st0" d="M125.6,73.07h2.23c0.41,0,0.8,0.05,1.15,0.16c0.35,0.11,0.66,0.27,0.92,0.47c0.26,0.21,0.46,0.47,0.61,0.77
			c0.15,0.31,0.22,0.66,0.22,1.06c0,0.32-0.05,0.58-0.14,0.81c-0.09,0.22-0.19,0.4-0.3,0.55c-0.13,0.16-0.27,0.3-0.44,0.42
			l1.21,2.08h-2.42l-0.97-1.6v1.6h-2.06V73.07z M127.66,76.18h0.11c0.25,0,0.45-0.05,0.63-0.16c0.17-0.11,0.26-0.29,0.26-0.54
			c0-0.25-0.09-0.43-0.26-0.54c-0.17-0.11-0.38-0.16-0.63-0.16h-0.11V76.18z"/>
	</g>
</g>
</svg>
